<svg xmlns="http://www.w3.org/2000/svg" width="800" height="500" viewBox="0 0 800 500">
  <defs>
    <linearGradient id="bg" x1="0%" y1="0%" x2="100%" y2="100%">
      <stop offset="0%" style="stop-color:#1e1e1e"/>
      <stop offset="100%" style="stop-color:#252526"/>
    </linearGradient>
  </defs>
  
  <!-- Background -->
  <rect width="800" height="500" fill="url(#bg)"/>
  
  <!-- Toolbar -->
  <rect x="0" y="0" width="800" height="40" fill="#333333"/>
  <text x="10" y="25" fill="#cccccc" font-family="Arial" font-size="12">Tools</text>
  
  <!-- Tool buttons -->
  <rect x="50" y="8" width="24" height="24" rx="3" fill="#3c3c3c" stroke="#555" stroke-width="1"/>
  <rect x="56" y="14" width="12" height="12" fill="none" stroke="#0078d4" stroke-width="1.5"/>
  
  <rect x="80" y="8" width="24" height="24" rx="3" fill="#3c3c3c" stroke="#555" stroke-width="1"/>
  <circle cx="92" cy="20" r="6" fill="none" stroke="#0078d4" stroke-width="1.5"/>
  
  <rect x="110" y="8" width="24" height="24" rx="3" fill="#3c3c3c" stroke="#555" stroke-width="1"/>
  <line x1="116" y1="26" x2="128" y2="14" stroke="#0078d4" stroke-width="1.5"/>
  
  <rect x="140" y="8" width="24" height="24" rx="3" fill="#3c3c3c" stroke="#555" stroke-width="1"/>
  <text x="148" y="25" fill="#0078d4" font-family="Arial" font-size="14" font-weight="bold">T</text>
  
  <!-- Actions section -->
  <text x="180" y="25" fill="#cccccc" font-family="Arial" font-size="12">Actions</text>
  <rect x="230" y="8" width="24" height="24" rx="3" fill="#3c3c3c" stroke="#555" stroke-width="1"/>
  <rect x="260" y="8" width="24" height="24" rx="3" fill="#3c3c3c" stroke="#555" stroke-width="1"/>
  <rect x="290" y="8" width="24" height="24" rx="3" fill="#0078d4" stroke="#005a9e" stroke-width="1"/>
  
  <!-- Canvas area with grid -->
  <rect x="0" y="40" width="800" height="460" fill="#2d2d30"/>
  
  <!-- Grid pattern -->
  <g stroke="#3c3c3c" stroke-width="0.5">
    <line x1="0" y1="60" x2="800" y2="60"/>
    <line x1="0" y1="80" x2="800" y2="80"/>
    <line x1="0" y1="100" x2="800" y2="100"/>
    <line x1="0" y1="120" x2="800" y2="120"/>
    <line x1="0" y1="140" x2="800" y2="140"/>
    <line x1="0" y1="160" x2="800" y2="160"/>
    <line x1="0" y1="180" x2="800" y2="180"/>
    <line x1="0" y1="200" x2="800" y2="200"/>
    <line x1="0" y1="220" x2="800" y2="220"/>
    <line x1="0" y1="240" x2="800" y2="240"/>
    <line x1="0" y1="260" x2="800" y2="260"/>
    <line x1="0" y1="280" x2="800" y2="280"/>
    <line x1="0" y1="300" x2="800" y2="300"/>
    <line x1="0" y1="320" x2="800" y2="320"/>
    <line x1="0" y1="340" x2="800" y2="340"/>
    <line x1="0" y1="360" x2="800" y2="360"/>
    <line x1="0" y1="380" x2="800" y2="380"/>
    <line x1="0" y1="400" x2="800" y2="400"/>
    <line x1="0" y1="420" x2="800" y2="420"/>
    <line x1="0" y1="440" x2="800" y2="440"/>
    <line x1="0" y1="460" x2="800" y2="460"/>
    <line x1="0" y1="480" x2="800" y2="480"/>
    <line x1="20" y1="40" x2="20" y2="500"/>
    <line x1="40" y1="40" x2="40" y2="500"/>
    <line x1="60" y1="40" x2="60" y2="500"/>
    <line x1="80" y1="40" x2="80" y2="500"/>
    <line x1="100" y1="40" x2="100" y2="500"/>
    <line x1="120" y1="40" x2="120" y2="500"/>
    <line x1="140" y1="40" x2="140" y2="500"/>
    <line x1="160" y1="40" x2="160" y2="500"/>
    <line x1="180" y1="40" x2="180" y2="500"/>
    <line x1="200" y1="40" x2="200" y2="500"/>
    <line x1="220" y1="40" x2="220" y2="500"/>
    <line x1="240" y1="40" x2="240" y2="500"/>
    <line x1="260" y1="40" x2="260" y2="500"/>
    <line x1="280" y1="40" x2="280" y2="500"/>
    <line x1="300" y1="40" x2="300" y2="500"/>
    <line x1="320" y1="40" x2="320" y2="500"/>
    <line x1="340" y1="40" x2="340" y2="500"/>
    <line x1="360" y1="40" x2="360" y2="500"/>
    <line x1="380" y1="40" x2="380" y2="500"/>
    <line x1="400" y1="40" x2="400" y2="500"/>
    <line x1="420" y1="40" x2="420" y2="500"/>
    <line x1="440" y1="40" x2="440" y2="500"/>
    <line x1="460" y1="40" x2="460" y2="500"/>
    <line x1="480" y1="40" x2="480" y2="500"/>
    <line x1="500" y1="40" x2="500" y2="500"/>
    <line x1="520" y1="40" x2="520" y2="500"/>
    <line x1="540" y1="40" x2="540" y2="500"/>
    <line x1="560" y1="40" x2="560" y2="500"/>
    <line x1="580" y1="40" x2="580" y2="500"/>
    <line x1="600" y1="40" x2="600" y2="500"/>
    <line x1="620" y1="40" x2="620" y2="500"/>
    <line x1="640" y1="40" x2="640" y2="500"/>
    <line x1="660" y1="40" x2="660" y2="500"/>
    <line x1="680" y1="40" x2="680" y2="500"/>
    <line x1="700" y1="40" x2="700" y2="500"/>
    <line x1="720" y1="40" x2="720" y2="500"/>
    <line x1="740" y1="40" x2="740" y2="500"/>
    <line x1="760" y1="40" x2="760" y2="500"/>
    <line x1="780" y1="40" x2="780" y2="500"/>
  </g>
  
  <!-- Sample shapes -->
  <rect x="100" y="120" width="150" height="100" rx="5" fill="#4a90d9" stroke="#0078d4" stroke-width="2"/>
  <circle cx="450" cy="200" r="60" fill="#50c878" stroke="#228b22" stroke-width="2"/>
  <line x1="550" y1="300" x2="700" y2="180" stroke="#ff6b6b" stroke-width="3"/>
  <text x="200" y="350" fill="#ffffff" font-family="Arial" font-size="24">Kazo Design</text>
  
  <!-- Selection handles on rectangle -->
  <rect x="95" y="115" width="10" height="10" fill="#0078d4"/>
  <rect x="170" y="115" width="10" height="10" fill="#0078d4"/>
  <rect x="245" y="115" width="10" height="10" fill="#0078d4"/>
  <rect x="245" y="165" width="10" height="10" fill="#0078d4"/>
  <rect x="245" y="215" width="10" height="10" fill="#0078d4"/>
  <rect x="170" y="215" width="10" height="10" fill="#0078d4"/>
  <rect x="95" y="215" width="10" height="10" fill="#0078d4"/>
  <rect x="95" y="165" width="10" height="10" fill="#0078d4"/>
</svg>
